<?xml version="1.0" encoding="UTF-8"?>
<svg id="Butterfly_1" data-name="Butterfly 1" xmlns="http://www.w3.org/2000/svg" viewBox="0 0 64 64">
  <defs>
    <style>
      .cls-1 {
        fill: #daeccf;
      }
    </style>
  </defs>
  <path class="cls-1" d="M61.49,34.39c-2.41-2.26-5.75-1.05-8.69,0-.84.31-1.64.58-2.37.77-.19-.23-.39-.44-.67-.63-.37-.25-.88-.45-1.53-.43.08-1.79.19-3.64.71-5.34.57-1.89,1.63-3.35,2.97-4.15.89-.53,1.86-.68,2.58-.38.38.16.73.51.89.91.08.18.17.53.02.87s0,.75.35.91c.35.15.75,0,.91-.35.26-.6.26-1.29,0-1.94-.3-.75-.92-1.37-1.65-1.67-1.14-.46-2.52-.28-3.8.47-1.63.97-2.91,2.71-3.59,4.93-.58,1.92-.69,3.91-.78,5.83,0,.08,0,.16.04.23-.49.2-1.02.51-1.61.96-.64.48-1.26.98-1.87,1.47-.22-2.52-.09-4.56.06-6.87.08-1.26.17-2.56.21-4.07.1-4.4-.04-9.53-1.94-14.17-2.04-5-6.07-8.67-10.52-9.57-2.75-.56-5.01.18-6.4,2.07-.96,1.31-1.36,3.02-1.24,4.8-3.67-3.61-9.5-7.51-14.92-3.25-1.47,1.15-2.43,3-2.51,4.79-.07,1.44.44,2.69,1.46,3.65.49.46,1.08.83,1.64,1.18,1.18.73,1.91,1.24,1.96,2.06.03.45-.18.96-.39,1.5-.35.87-.74,1.87-.2,2.86.31.57.84.91,1.31,1.22.49.32.79.53.83.8.05.34-.32.69-.9,1.2-.69.61-1.56,1.37-1.31,2.51.19.85.91,1.27,1.48,1.6.29.17.56.33.74.51.71.74.49,1.58.06,2.86-.15.46-.31.93-.39,1.41-.19,1.03.13,2.04.83,2.84-1.51.15-3.38.36-4.67,1.48-2.32,2.04-.81,3.92.2,5.17.52.64,1.04,1.31.98,1.77-.04.25-.25.54-.67.83-1.56,1.13-2.75,3.02-1.68,4.55.48.69,1.21.98,1.87,1.24.58.23,1.09.43,1.31.85.29.54.27.65-.72,1.2-.58.33-1.24.69-1.58,1.38-.35.72-.24,1.29-.09,1.62.27.61.91,1.06,1.9,1.34l.38.1c.88.24,1,.28,1.36.99.79,1.53,2.14,2.44,3.92,2.63.24.03.5.04.75.04,4.75,0,10.96-4.32,13.2-6.68-.25.89-.42,1.77-.5,2.6-.05.57-.07,1.18.18,1.77.31.75,1,1.25,1.72,1.25h.07c.88-.04,1.47-.79,1.7-1.07.94-1.19,1.61-2.55,2.24-3.86.44-.9.89-1.82,1.42-2.67.3-.48.63-.95.99-1.42,1.15,1.39,2.47,2.71,3.97,3.93.12.09.27.14.43.14.15,0,.29-.05.42-.12.38-.25.86-.57,1.66-1.69.22-.31.15-.74-.16-.96-.31-.23-.74-.15-.96.16-.4.56-.69.86-.92,1.06-1.34-1.14-2.53-2.35-3.55-3.61.84-.96,1.78-1.89,2.84-2.75.17-.13.4-.32.69-.55.41-.32.93-.73,1.5-1.2,1.06,1.79,2.31,3.46,3.72,4.95.13.14.31.22.5.22h.06c.21-.02.39-.12.52-.29l.75-1.09c.22-.31.14-.74-.18-.96-.31-.22-.74-.14-.96.18l-.26.38c-1.15-1.31-2.19-2.74-3.07-4.26,1.66-1.4,3.55-3.15,4.86-4.84,1.29-1.67,1.82-3.04,1.65-4.22.72-.2,1.47-.46,2.27-.74,2.69-.98,5.49-1.99,7.29-.3.23.22.3.49.22.83-.11.45-.5.86-.9.97-.32.08-.64-.03-.94-.35-.26-.27-.69-.28-.98-.02-.27.26-.28.69-.02.98.51.53,1.1.81,1.73.81.19,0,.38-.03.56-.08.88-.23,1.64-1.02,1.88-1.96.18-.82-.04-1.61-.63-2.16ZM25.9,5.08c1.07-1.46,2.81-1.99,5.01-1.54,4,.82,7.65,4.16,9.53,8.72,1.81,4.4,1.94,9.35,1.84,13.61-.04,1.47-.12,2.76-.2,4.01-.17,2.65-.32,4.96.04,8.03-1.06.92-2.07,1.86-3.01,2.81-.08-.07-.18-.12-.29-.15-1.77-.37-2.93-1.13-4.27-2.01-.59-.38-1.21-.79-1.92-1.2-1.61-.91-3.84-1.99-6.22-2.11-.02,0-.04-.02-.07-.02-2.39-.29-3.99-.61-4.75-.96-1.2-.54-2.04-1.51-2.33-2.71-.33-1.35.04-2.87.99-4.08.29-.38.7-.69,1.15-1,.64-.48,1.3-.97,1.71-1.75.77-1.45.31-2.65-.1-3.71-.27-.71-.53-1.39-.42-2.12.16-1.06.84-2.04,1.79-2.54.11-.07.24-.12.37-.19.69-.34,1.57-.77,1.77-1.75.15-.75-.21-1.39-.5-1.9l-.07-.11c-1.37-2.46-1.38-5.47-.03-7.32ZM30.62,52.69s0,0,0,0c-1.1,1.47-4.18,2.42-6.22,1.91-1.26-.32-1.99-1.1-2.18-2.33-.13-.9.26-1.85.68-2.85.51-1.22,1.03-2.47.69-3.85-.23-.93-.79-1.63-1.34-2.31-.38-.48-.74-.92-.96-1.41-.35-.8-.29-1.73.16-2.63.62-1.22,1.87-2.2,3.16-2.48,2.65-.58,5.44.76,7.3,1.82.68.38,1.28.78,1.85,1.15,1.29.84,2.52,1.64,4.27,2.09-1,1.07-1.93,2.17-2.78,3.28-2.09,2.76-3.62,5.28-4.65,7.6ZM12.67,27.98c-.48-.27-.77-.46-.83-.7-.08-.32.3-.68.87-1.17.68-.59,1.52-1.33,1.35-2.44-.13-.9-.85-1.37-1.44-1.75-.36-.24-.69-.47-.84-.73-.22-.39-.05-.9.27-1.69.25-.63.54-1.34.49-2.1-.1-1.59-1.44-2.41-2.61-3.14-.54-.33-1.04-.65-1.44-1.01-.9-.84-1.05-1.88-1.02-2.59.06-1.39.84-2.86,1.99-3.76,5.28-4.15,11.3,1.06,14.43,4.53.05.05.1.08.16.12.18.52.39,1.03.67,1.52l.07.12c.2.35.39.7.35.95-.07.31-.55.55-1.02.78-.14.07-.28.14-.41.21-1.32.71-2.28,2.07-2.51,3.56-.16,1.09.19,2,.5,2.82.36.94.65,1.69.17,2.57-.27.51-.78.88-1.31,1.29-.49.37-1,.74-1.4,1.26-1.2,1.54-1.67,3.5-1.24,5.26.39,1.62,1.5,2.92,3.1,3.64.4.18.97.35,1.69.52-.7.4-1.33.94-1.84,1.59-.03,0-.06-.03-.08-.04-1.74-.43-3.56-.82-5.4-.87-.92-.4-1.87-1.28-1.64-2.5.07-.38.21-.79.35-1.22.42-1.28.96-2.86-.37-4.24-.3-.34-.69-.56-1.04-.76ZM15.87,60.6c-1.33-.14-2.25-.76-2.84-1.89-.61-1.19-1.15-1.39-2.22-1.69l-.36-.1c-.82-.23-1-.51-1.03-.58-.05-.1-.02-.26.08-.47.14-.29.58-.54,1-.78.78-.43,2.23-1.24,1.27-3.04-.46-.86-1.29-1.19-2.01-1.48-.54-.22-1-.4-1.25-.75-.58-.84.67-2.14,1.36-2.65.73-.53,1.14-1.1,1.22-1.76.14-1.05-.57-1.95-1.27-2.82-1.15-1.43-1.63-2.16-.36-3.29.97-.85,2.54-1.01,3.94-1.15l.27-.03c2.14-.22,4.36.2,6.46.7-.54,1.21-.58,2.47-.08,3.58.29.66.72,1.19,1.15,1.72.47.59.92,1.15,1.08,1.77.23.93-.19,1.93-.63,2.99-.47,1.13-.96,2.3-.77,3.58.26,1.78,1.4,3.01,3.2,3.46.49.12,1.02.18,1.57.18.38,0,.78-.04,1.18-.09-2.93,2.28-7.68,4.94-10.98,4.59ZM48.25,39.81h0c-2,2.59-5.51,5.35-7.19,6.68-.3.23-.54.42-.71.56-1.24,1.01-2.33,2.1-3.29,3.25h0c-.08.07-.14.14-.19.23-.55.68-1.08,1.37-1.53,2.09-.57.9-1.04,1.87-1.49,2.8-.64,1.31-1.24,2.53-2.08,3.61-.1.13-.42.54-.68.54-.11,0-.36-.17-.45-.39-.13-.32-.11-.73-.08-1.14.3-3.42,2.22-7.39,5.84-12.15,2.53-3.31,5.79-6.49,9.71-9.45.55-.41,1.46-1,2.23-1,.24,0,.47.06.67.2.38.26.59.58.66.96.08.52-.1,1.5-1.39,3.18Z"/>
  <path class="cls-1" d="M30.53,40.11c-.7-.38-1.94-.63-3.14-.08-1.18.57-1.79,1.68-1.93,2.48-.16.82.04,1.31.1,1.3.1,0,.08-.49.34-1.16.23-.67.81-1.55,1.77-2.01.97-.45,2.01-.34,2.68-.09.69.23,1.04.55,1.12.48.06-.06-.2-.53-.93-.91Z"/>
  <path class="cls-1" d="M16.9,58.23c-1.08-.12-1.91-.82-2.35-1.39-.45-.58-.57-1.06-.68-1.03-.08,0-.11.54.29,1.29.38.72,1.31,1.62,2.66,1.78,1.31.14,2.42-.39,3.06-.87.66-.5.91-.95.85-1-.07-.07-.44.25-1.1.61-.65.34-1.65.73-2.74.61Z"/>
  <path class="cls-1" d="M18.33,10.35c.7.67.97,1.26,1.06,1.21.07-.02-.04-.69-.73-1.53-.66-.81-2.03-1.74-3.75-1.64-1.72.12-2.96,1.25-3.46,2.17-.54.95-.45,1.65-.38,1.65.11.02.21-.62.78-1.4.54-.77,1.67-1.67,3.12-1.77,1.45-.08,2.69.64,3.37,1.31Z"/>
  <path class="cls-1" d="M30.88,17.9s.03-.48,0-1.32c0-.83-.07-2.12.69-3.36.38-.59,1-1.17,1.79-1.17.78-.03,1.57.54,2.14,1.29.6.75,1,1.69,1.33,2.72.34,1.02.58,2.11.8,3.25.43,2.26.63,4.48.91,6.46.27,1.99.52,3.78.71,5.3.22,1.5.39,2.72.54,3.56s.24,1.31.29,1.3c.05,0,.03-.48-.04-1.32s-.18-2.07-.33-3.59c-.17-1.51-.36-3.31-.58-5.31-.24-2-.43-4.2-.86-6.5-.22-1.15-.48-2.27-.84-3.32-.35-1.05-.8-2.07-1.47-2.89-.64-.81-1.58-1.5-2.63-1.46-1.05.05-1.78.8-2.17,1.47-.4.7-.54,1.43-.59,2.05s0,1.15.05,1.58c.1.84.22,1.3.25,1.29Z"/>
  <path class="cls-1" d="M24.49,28.22c-.23.68-.15,1.46.17,2.17.31.71.92,1.32,1.62,1.73.7.42,1.5.69,2.31.88,1.61.38,3.16.58,4.53.9,1.36.3,2.54.73,3.46,1.26,1.85,1.03,2.45,2.3,2.54,2.23.08,0-.41-1.42-2.3-2.63-.92-.6-2.16-1.1-3.55-1.45-1.39-.36-2.95-.57-4.52-.95-1.54-.36-3-1.03-3.55-2.23-.28-.58-.37-1.22-.2-1.75.15-.54.54-.93.98-1.15.89-.44,1.8-.38,2.38-.38.59.03.93.06.94,0,0-.04-.31-.16-.91-.26-.59-.08-1.52-.23-2.61.22-.53.23-1.06.7-1.29,1.4Z"/>
</svg>