<?xml version="1.0" encoding="UTF-8"?>
<svg id="Grass_1" data-name="Grass 1" xmlns="http://www.w3.org/2000/svg" viewBox="0 0 64 64">
  <defs>
    <style>
      .cls-1 {
        fill: #daeccf;
      }
    </style>
  </defs>
  <g id="Laag_3" data-name="Laag 3">
    <path class="cls-1" d="M61.28,58.91h-7.85c.29-17.64,2.81-32.99,7.72-46.92.1-.28.02-.59-.21-.78-.22-.19-.54-.22-.8-.09-6,3.26-11.24,7.9-15.22,13.46-.72-2.5-1.54-5.06-2.49-7.71-.06-.15-.13-.31-.18-.46.8-4.84,2.29-7.78,3.87-10.88l.4-.78c.14-.27.09-.61-.13-.82-.21-.22-.55-.27-.82-.14-2.49,1.23-4.95,2.79-7.26,4.61-.75-1.4-1.51-2.84-2.14-4.31-.15-.37-.57-.53-.94-.38-.36.15-.53.58-.38.94h0c.73,1.71,1.25,3.49,1.58,5.3-3.6,3.14-6.75,6.85-9.03,10.71,0-1.08-.02-2.11-.02-3.07-.02-2.95-.03-5.5-.14-7.61-.02-.31-.22-.57-.52-.66-.3-.08-.62.04-.78.3-4.23,6.43-6.87,13.88-7.41,20.77-.6-.9-1.22-1.79-1.89-2.64-1.41-1.77-2.94-3.47-4.42-5.11-2.31-2.56-4.7-5.22-6.61-8.14h0c-.21-.34-.66-.43-.99-.21-.33.21-.43.66-.2.99h0c6.15,9.36,9.5,20.5,9.61,31.69-2.05-5.08-4.03-10.52-5.49-15.51-.1-.34-.44-.55-.76-.51-.35.04-.61.31-.64.66-.69,9.63-.64,17.94,1.84,27.16.02.07.05.12.09.17H2.72c-.4,0-.72.32-.72.72s.32.72.72.72h58.57c.4,0,.72-.32.72-.72s-.33-.72-.72-.72ZM45.51,26.2c3.57-5.21,8.26-9.63,13.67-12.88-4.55,13.6-6.9,28.55-7.18,45.59h-4.99c1.95-10.63,1.46-21-1.62-32.6.05-.03.09-.07.12-.11ZM45.58,58.91h-13.39c-.38-8.08,1.96-18.13,3.87-26.26l.43-1.83c1.36-5.86,2.6-12.98,1.59-19.85,1.11,2.04,2.21,4.16,3.01,6.39,5.6,15.46,6.98,28.28,4.49,41.54ZM41.25,14.08c-.71-1.52-1.49-2.99-2.27-4.41,1.68-1.33,3.43-2.53,5.23-3.56-1.15,2.31-2.21,4.7-2.96,7.96ZM36.71,11.61c.87,6.52-.32,13.3-1.61,18.9l-.43,1.83c-1.91,8.19-4.28,18.32-3.9,26.58h-1c.08-.14.13-.28.11-.44-1.86-15.19-2.29-26.53-2.42-34.88,2.08-4.26,5.36-8.47,9.25-11.98ZM19.86,32.46c.11-6.49,2.29-13.7,6.05-20.1.03,1.57.04,3.3.06,5.22,0,1.75.02,3.68.05,5.8h0c.13,8.42.55,19.87,2.43,35.26,0,.1.05.18.1.27h-.75c-.57-5.48-2.39-16.85-7.93-26.42,0,0,0-.02,0-.03ZM9.85,22.1c.43.49.88.98,1.31,1.47,1.47,1.63,2.99,3.31,4.36,5.05,5.61,7.06,9.54,18.07,10.81,30.29h-7.09c-1.19-2.51-2.51-5.46-3.86-8.64.47-9.67-1.47-19.41-5.54-28.18ZM10.36,58.37c-2.09-7.78-2.41-14.91-2.03-22.8,2.68,8.2,6.39,17.03,9.34,23.34h-7.39c.1-.15.13-.35.08-.54Z"/>
    <path class="cls-1" d="M42.48,43.49c.14.08,1.35-2.57,1.33-6.09,0-3.52-1.2-6.17-1.34-6.08-.2.06.69,2.71.67,6.08.02,3.38-.85,6.03-.66,6.09Z"/>
    <path class="cls-1" d="M51.65,22.71c1.32-1.83,2.7-3.07,2.56-3.23-.1-.14-1.73.92-3.11,2.83-1.4,1.9-1.9,3.78-1.74,3.83.19.07.96-1.61,2.29-3.43Z"/>
    <path class="cls-1" d="M24.23,21.02c-.17-.04-.6,1.34-.55,3.1.04,1.76.51,3.12.7,3.07.19-.04.02-1.41,0-3.09-.05-1.67.06-3.04-.14-3.08Z"/>
    <path class="cls-1" d="M17.73,41.06c.16-.11-.46-1.36-.98-2.99-.53-1.62-.75-3.01-.95-3-.18,0-.25,1.49.31,3.21.54,1.71,1.47,2.88,1.61,2.77Z"/>
  </g>
</svg>