<?xml version="1.0" encoding="UTF-8"?>
<svg id="Laag_1" xmlns="http://www.w3.org/2000/svg" version="1.1" viewBox="0 0 154 154">
  <!-- Generator: Adobe Illustrator 29.8.1, SVG Export Plug-In . SVG Version: 2.1.1 Build 2)  -->
  <g>
    <rect x="64.8" y="78.9" width="10.4" height="10.4" rx=".7" ry=".7"/>
    <rect x="64.8" y="64.6" width="10.4" height="10.4" rx=".7" ry=".7"/>
    <rect x="78.7" y="64.6" width="10.4" height="10.4" rx=".7" ry=".7"/>
    <rect x="78.7" y="78.9" width="10.4" height="10.4" rx=".7" ry=".7"/>
  </g>
  <path d="M146.8,58.6L82.2,11.4c-3.1-2.2-7.3-2.2-10.3,0L7.2,58.6c-1.9,1.4-3.1,3.4-3.5,5.7s.2,4.6,1.6,6.5c1.6,2.3,4.3,3.6,7.1,3.6s3.7-.6,5.2-1.7l5.7-4.2v43.9c-3.4,1.1-5.8,4.3-5.8,8s3.8,8.5,8.5,8.5h16.3c.9,1.2,1.9,2.4,3,3.6,11.5,11.5,29.6,11.7,30.6,11.7h2.1c1,0,19.1-.2,30.6-11.7s2.1-2.3,3-3.6h16.3c4.7,0,8.5-3.8,8.5-8.5s-2.4-6.8-5.8-8v-43.9l5.7,4.2c1.6,1.1,3.4,1.7,5.2,1.7,2.7,0,5.4-1.3,7.1-3.6,2.8-3.9,2-9.4-1.9-12.3ZM26,124.5c-2.2,0-4-1.8-4-4s1.6-3.8,3.5-3.9h10.6c.8,2.6,1.9,5.2,3.3,7.9h-13.4,0ZM48.6,129.4c-7.9-7.9-9.8-19.9-10.2-24.9,5.1.4,17,2.3,24.9,10.2,7.9,7.9,9.8,19.9,10.2,24.9-5.1-.4-17-2.3-24.9-10.2h0ZM77,131.7c-1.4-6.3-4.3-14.2-10.3-20.3,0-.6,0-1.1,0-1.7,0-11.2,7.1-20.9,10.4-24.9,3.3,3.9,10.4,13.6,10.4,24.9s0,1.1,0,1.7c-6.1,6.1-9,14-10.3,20.3ZM105.4,129.4c-7.9,7.9-19.9,9.8-24.9,10.2.4-5.1,2.3-17,10.2-24.9,7.9-7.9,19.9-9.8,24.9-10.2-.4,5.1-2.3,17-10.2,24.9h0ZM131.9,120.5c0,2.2-1.8,4-4,4h-13.4c1.4-2.6,2.5-5.3,3.3-7.9h10.4c2.1.1,3.7,1.8,3.7,3.9h0ZM126.1,112h-7c1.2-5.5,1.2-9.7,1.2-10v-2.3h-2.3c-.9,0-14.9.1-26.1,7.9-1-15.4-12.8-27.3-13.3-27.8l-1.6-1.6-1.6,1.6c-.5.5-12.3,12.4-13.3,27.8-11.2-7.8-25.2-7.9-26.1-7.9h-2.3v2.3c0,.4,0,4.5,1.2,10h-7v-46.8l48.9-35.8s0,0,0,0l49.1,35.8v46.8h0ZM145,68.1c-1.4,1.9-4,2.3-5.9.9l-59.4-43.2c-1.6-1.2-4-1.2-5.6,0L14.9,69.1c-.9.6-1.8.8-2.5.8-1.3,0-2.6-.6-3.4-1.7-.7-.9-.9-2-.8-3.1s.8-2.1,1.7-2.7L74.5,15.1c1.5-1.1,3.5-1.1,4.9,0l64.6,47.1c1.9,1.4,2.3,4,.9,5.8h0Z"/>
</svg>