<?xml version="1.0" encoding="UTF-8"?>
<svg id="Leaf_1" data-name="Leaf 1" xmlns="http://www.w3.org/2000/svg" viewBox="0 0 64 64">
  <defs>
    <style>
      .cls-1 {
        fill: #daeccf;
      }
    </style>
  </defs>
  <path class="cls-1" d="M61.74,19.94c-2.09-8.31-8-15.55-15.8-19.37-.19-.09-.39-.1-.58-.02s-.33.23-.41.41c-5.85,15.58-2.33,30.78,9.9,42.81.13.13.3.19.45.2-.38,5.85-1.57,11.63-3.59,17.13-1.84-3.26-4.11-6.84-6.78-10.44,1.55-2.1,2.17-5.12,1.7-8.73-.97-7.71-5.28-14.71-12.13-19.7C24.71,15.1,12.74,12.07,2.28,9.77c-.24-.05-.49.02-.67.2s-.25.43-.19.67c3.18,13.24,7.94,23.25,14.53,30.61,5.27,5.89,12.14,10.37,18.39,12,1.36.35,2.64.53,3.83.53,2.28,0,4.22-.66,5.71-1.96.03-.02.05-.05.07-.08,2.91,3.96,5.33,7.9,7.24,11.38.13.24.37.37.63.37h.04c.28-.02.52-.2.63-.45,2.37-5.95,3.76-12.25,4.21-18.63.08-.05.16-.1.22-.18,5.12-6.9,6.92-15.98,4.83-24.29ZM42.94,50.76c-1.88,1.64-4.73,2.03-8.22,1.11-5.98-1.57-12.59-5.89-17.68-11.57-6.23-6.96-10.79-16.42-13.91-28.85,10.03,2.24,21.33,5.25,30.55,11.96,4.62,3.36,10.36,9.34,11.54,18.71.38,3.02-.05,5.55-1.18,7.34-5.03-6.55-11.46-13.02-19.36-17.52-.34-.2-.79-.08-.98.27-.2.34-.08.79.27.98,7.81,4.46,14.16,10.9,19.12,17.41-.05.05-.09.11-.14.16ZM49.74,10.28c-.19-.35-.62-.49-.97-.31s-.49.62-.31.97c5.02,9.64,7.37,20.55,6.95,31.33-11.23-11.32-14.55-25.5-9.38-40.05,7.07,3.72,12.4,10.42,14.32,18.06,1.83,7.28.52,15.19-3.5,21.52.33-10.84-2.05-21.81-7.11-31.52Z"/>
</svg>