<?xml version="1.0" encoding="UTF-8"?>
<svg id="Tree_1" data-name="Tree 1" xmlns="http://www.w3.org/2000/svg" viewBox="0 0 64 64">
  <defs>
    <style>
      .cls-1 {
        fill: #daeccf;
      }
    </style>
  </defs>
  <path class="cls-1" d="M62.99,24.08c-.24-1.62-1.39-3.48-2.74-4.41-.43-.3-.86-.49-1.3-.59.64-2.14.05-4.61-1.58-6.19-1.61-1.57-3.46-2.02-5.39-1.34-.29-2.49-1.98-4.79-4.31-5.72-1.86-.74-3.86-.46-5.6.72-.02-.19-.06-.39-.11-.58-.29-1.03-1-1.86-1.9-2.23-.7-.29-1.5-.19-2.32.26-.73.41-1.42,1.09-1.89,1.83-.95-1.34-2.59-2.18-4.25-2.01-1.47.15-2.86,1.09-3.65,2.31-1.16-2.24-3.68-3.82-6.22-3.59-2.88.25-5.34,2.79-5.71,5.63-2.06-.96-4.49-1.03-6.03.88-1.56,1.95-1.52,4.94-.02,6.9-2,1.86-2.26,4.63-.58,7.07,1.17,1.72,5.79,4.22,7.95,2.87.53-.33.95-.77,1.34-1.19.36-.38.7-.74,1.1-.98.82-.5,1.56-.56,2.24-.18,1.17.64,1.93,2.34,2.09,3.78-.65.3-1.35.52-2.06.64-.89.15-1.84.2-2.75.26-1.58.09-3.2.19-4.75.76-2.22.8-3.89,2.47-4.46,4.45-.67,2.27.32,4.86,2.26,5.9.52.28,1.06.44,1.58.58.45.13.85.25,1.23.44.95.46,1.57,1.2,1.91,2.22.73,2.22-.06,5.43-1.19,7.63-2.21,4.33-6.95,8.16-12.36,9.99-.35.12-.55.51-.43.86.09.29.36.46.64.46.07,0,.15,0,.21-.04,5.75-1.94,10.78-6.03,13.14-10.66,1.16-2.27,2.18-5.91,1.27-8.68-.45-1.37-1.33-2.38-2.6-3.01-.48-.24-.97-.38-1.45-.52s-.93-.27-1.32-.48c-1.38-.74-2.09-2.64-1.6-4.32.45-1.55,1.85-2.91,3.63-3.56,1.36-.49,2.82-.58,4.37-.68.95-.06,1.92-.12,2.88-.28,2.73-.45,5.62-2.18,5.94-4.99.04-.37-.22-.7-.6-.75-.38-.04-.71.23-.75.6-.11.98-.69,1.79-1.49,2.41-.32-1.66-1.23-3.43-2.69-4.23-.78-.43-2.04-.74-3.61.2-.55.33-.97.78-1.38,1.21-.35.37-.69.72-1.08.96-1.34.83-5.17-1.09-6.11-2.48-1.4-2.04-1.07-4.28.84-5.68.16-.12.26-.31.28-.5,0-.2-.06-.4-.2-.54-1.47-1.41-1.64-4.04-.36-5.64,1.26-1.58,3.54-1.14,5.23-.02.22.15.5.15.72.02.22-.13.35-.38.33-.64-.21-2.58,1.93-5.14,4.52-5.36,2.58-.24,5.15,1.91,5.38,4.49.04.36.33.62.7.62.36,0,.65-.3.66-.66.05-1.5,1.55-3,3.15-3.17,1.54-.14,3.13.98,3.48,2.49.07.32.32.53.69.53.32,0,.59-.25.65-.57.14-.84.97-1.93,1.85-2.43.31-.18.75-.34,1.13-.19.52.21.94.72,1.11,1.35.18.63.09,1.28-.24,1.73-.21.3-.16.7.13.93.29.22.7.19.94-.09,1.68-1.94,3.75-2.61,5.69-1.83,2.14.86,3.62,3.15,3.51,5.46,0,.24.11.48.32.61.21.13.47.14.69.02,1.75-.95,3.31-.72,4.77.69,1.43,1.39,1.83,3.78.93,5.55-.12.23-.09.51.06.72.16.2.43.31.68.25.42-.08.88.04,1.37.39,1.03.71,1.98,2.25,2.17,3.5.2,1.38-.06,2.34-.82,2.92-1.72,1.32-5.68.54-7.95-.44-.25-.1-.54-.06-.73.13-.19.19-.27.46-.18.72.41,1.17.32,2.53-.24,3.64-.93,1.83-2.33,1.8-4.27,1.75-.53,0-1.07-.03-1.62,0-.37.02-.66.33-.64.7.06,1.54-.14,2.64-.66,3.49-.57.94-1.57,1.47-2.58,1.44-.92-.05-1.69-.57-2.12-1.47-.17-.33-.56-.47-.89-.32l-.46.21c-.43.19-.83.38-1.21.54-.17,0-.33.06-.46.17-1.04.35-2.01.42-3.08-.24-.62-.38-1.09-.94-1.44-1.58,0-.03,0-.06-.03-.09s-.04-.05-.06-.07c-.81-1.63-.85-3.78-.58-5.36.96-.77,1.82-1.64,2.56-2.62.22-.3.16-.72-.14-.95s-.72-.16-.95.14c-2.33,3.13-6.04,5.14-9.93,5.37-.19,0-.37.02-.56.03-.99.04-2.03.08-2.98.6-1.44.78-2.07,1.67-1.85,2.63.42,1.96,4.34,2.88,5.35,2.96.36.03.73.04,1.1.04,2.39,0,4.92-.56,7.13-1.57.43.66.97,1.21,1.65,1.63.81.49,1.59.69,2.33.7-1.58,1.27-3.75,1.88-5.55,1.91-2.19.04-3.48,1.34-3.54,3.57-.24,8.19,3.27,13.6,10.16,15.65.06.02.13.03.19.03.3,0,.57-.19.65-.48.11-.36-.09-.74-.45-.84-6.32-1.88-9.41-6.7-9.19-14.31.05-1.51.75-2.23,2.21-2.25,2.47-.05,5.92-1.07,7.78-3.73.46-.18.92-.38,1.36-.58.69.99,1.73,1.59,2.94,1.64.06,0,.13,0,.19,0,1.45,0,2.81-.79,3.61-2.09.58-.95.86-2.09.87-3.57h.02c.29,0,.57,0,.85.02,1.97.05,4.19.1,5.51-2.49.54-1.05.74-2.24.61-3.4,2.38.79,6.03,1.41,8.11-.19.76-.57,1.64-1.8,1.28-4.15ZM23.21,37.24c-1.35-.1-3.95-1.09-4.13-1.89-.06-.29.39-.73,1.18-1.16.67-.36,1.5-.4,2.38-.44.19,0,.39-.02.57-.03,2.45-.15,4.82-.96,6.9-2.24-.09,1.47.07,3.02.61,4.37-2.35,1.07-5.04,1.58-7.52,1.39Z"/>
  <path class="cls-1" d="M22.45,13.44c-1.36.79-2.11,2.11-2.26,3.12-.17,1.02.14,1.61.2,1.59.11-.02-.02-.61.24-1.48.24-.85.96-1.98,2.14-2.66,1.2-.69,2.5-.83,3.43-.88.94-.04,1.53,0,1.54-.1,0-.08-.56-.28-1.54-.36-.96-.06-2.4.02-3.76.79Z"/>
  <path class="cls-1" d="M53.33,22.5c.16.08.6-.64.35-1.59-.24-.95-.97-1.37-1.08-1.22-.12.14.27.66.45,1.38.2.72.1,1.36.28,1.43Z"/>
  <path class="cls-1" d="M48.52,26.63c-.15-.11-.84.65-1.85,1.37-.99.73-1.92,1.16-1.86,1.34.04.17,1.15-.02,2.24-.82,1.09-.81,1.6-1.81,1.47-1.9Z"/>
</svg>